<?xml version="1.0" encoding="utf-8"?>
<!DOCTYPE svg PUBLIC "-//W3C//DTD SVG 20010904//EN"
 "http://www.w3.org/TR/2001/REC-SVG-20010904/DTD/svg10.dtd">
<svg version="1.0" xmlns="http://www.w3.org/2000/svg"
 width="128.000000pt" height="128.000000pt" viewBox="0 0 128.000000 128.000000"
 preserveAspectRatio="xMidYMid meet">

<style type="text/css">
	.st1{fill:#DD9835;}
</style>

<g class="st1" transform="translate(0.000000,128.000000) scale(0.100000,-0.100000)" stroke="none">
<path d="M489 1267 c-56 -21 -107 -56 -133 -90 -52 -69 -59 -97 -66 -232 -6
-128 -7 -132 -49 -217 -38 -76 -43 -94 -43 -155 -1 -78 22 -142 73 -206 l30
-37 -30 -30 c-47 -47 -62 -101 -59 -205 2 -72 6 -90 18 -90 12 0 16 20 20 101
4 86 9 106 30 137 30 44 80 72 143 81 46 7 48 6 125 -53 44 -34 85 -61 92 -61
19 0 110 72 110 86 0 26 -22 24 -64 -6 -49 -35 -45 -36 -123 23 l-52 38 25 36
c13 20 24 39 24 43 0 4 34 8 75 8 94 0 167 32 220 96 50 61 65 105 72 210 8
123 2 146 -38 146 -37 0 -79 39 -79 75 0 39 -21 39 -86 0 -57 -34 -196 -85
-233 -85 -27 0 -45 -24 -28 -39 20 -16 147 18 236 63 l70 35 19 -34 c13 -20
34 -38 57 -46 l37 -14 -4 -101 c-3 -92 -6 -105 -33 -150 -19 -30 -49 -60 -79
-79 -44 -27 -58 -30 -126 -30 -68 0 -82 3 -126 30 -30 19 -60 49 -79 79 -28
46 -30 57 -35 170 -4 104 -7 121 -22 124 -25 5 -32 -35 -25 -142 9 -132 44
-203 128 -261 31 -22 38 -32 33 -49 -11 -38 -40 -57 -103 -70 -57 -12 -64 -11
-87 6 -47 37 -77 104 -81 182 -4 67 -2 75 38 156 41 83 42 88 48 215 5 108 10
138 30 178 46 96 131 137 281 137 103 0 165 -17 219 -59 66 -52 85 -105 92
-256 6 -127 7 -132 48 -215 39 -78 42 -90 39 -150 -2 -41 -12 -81 -25 -109
-12 -24 -20 -48 -17 -53 14 -22 37 -3 60 47 20 43 26 72 26 126 0 64 -5 80
-43 157 -42 85 -43 89 -49 217 -5 105 -11 138 -28 171 -32 63 -65 97 -124 129
-50 28 -60 30 -183 32 -90 2 -141 -1 -166 -10z"/>
<path d="M740 401 c0 -32 54 -68 112 -76 62 -8 82 -18 121 -54 45 -41 51 -59
57 -166 4 -80 8 -100 20 -100 23 0 26 165 5 221 -30 80 -125 144 -211 144 -12
0 -36 11 -52 25 -36 30 -52 32 -52 6z"/>
</g>
</svg>
